<svg xmlns:xlink="http://www.w3.org/1999/xlink" width="27.167ex" height="2.5ex" style="vertical-align: -0.667ex; margin-left: 0ex; margin-right: 0ex; margin-bottom: 1px; margin-top: 1px;" viewBox="0 -773.9 11724.2 1081.2" xmlns="http://www.w3.org/2000/svg">
<defs>
<path stroke-width="10" id="E1-MJMATHI-6E" d="M21 287Q22 293 24 303T36 341T56 388T89 425T135 442Q171 442 195 424T225 390T231 369Q231 367 232 367L243 378Q304 442 382 442Q436 442 469 415T503 336T465 179T427 52Q427 26 444 26Q450 26 453 27Q482 32 505 65T540 145Q542 153 560 153Q580 153 580 145Q580 144 576 130Q568 101 554 73T508 17T439 -10Q392 -10 371 17T350 73Q350 92 386 193T423 345Q423 404 379 404H374Q288 404 229 303L222 291L189 157Q156 26 151 16Q138 -11 108 -11Q95 -11 87 -5T76 7T74 17Q74 30 112 180T152 343Q153 348 153 366Q153 405 129 405Q91 405 66 305Q60 285 60 284Q58 278 41 278H27Q21 284 21 287Z"></path>
<path stroke-width="10" id="E1-MJMAIN-2216" d="M56 731Q56 740 62 745T75 750Q85 750 92 740Q96 733 270 255T444 -231Q444 -239 438 -244T424 -250Q414 -250 407 -240Q404 -236 230 242T56 731Z"></path>
<path stroke-width="10" id="E1-MJMATHI-72" d="M21 287Q22 290 23 295T28 317T38 348T53 381T73 411T99 433T132 442Q161 442 183 430T214 408T225 388Q227 382 228 382T236 389Q284 441 347 441H350Q398 441 422 400Q430 381 430 363Q430 333 417 315T391 292T366 288Q346 288 334 299T322 328Q322 376 378 392Q356 405 342 405Q286 405 239 331Q229 315 224 298T190 165Q156 25 151 16Q138 -11 108 -11Q95 -11 87 -5T76 7T74 17Q74 30 114 189T154 366Q154 405 128 405Q107 405 92 377T68 316T57 280Q55 278 41 278H27Q21 284 21 287Z"></path>
<path stroke-width="10" id="E1-MJMAIN-2F" d="M423 750Q432 750 438 744T444 730Q444 725 271 248T92 -240Q85 -250 75 -250Q68 -250 62 -245T56 -231Q56 -221 230 257T407 740Q411 750 423 750Z"></path>
<path stroke-width="10" id="E1-MJMATHI-73" d="M131 289Q131 321 147 354T203 415T300 442Q362 442 390 415T419 355Q419 323 402 308T364 292Q351 292 340 300T328 326Q328 342 337 354T354 372T367 378Q368 378 368 379Q368 382 361 388T336 399T297 405Q249 405 227 379T204 326Q204 301 223 291T278 274T330 259Q396 230 396 163Q396 135 385 107T352 51T289 7T195 -10Q118 -10 86 19T53 87Q53 126 74 143T118 160Q133 160 146 151T160 120Q160 94 142 76T111 58Q109 57 108 57T107 55Q108 52 115 47T146 34T201 27Q237 27 263 38T301 66T318 97T323 122Q323 150 302 164T254 181T195 196T148 231Q131 256 131 289Z"></path>
<path stroke-width="10" id="E1-MJMAIN-3D" d="M56 347Q56 360 70 367H707Q722 359 722 347Q722 336 708 328L390 327H72Q56 332 56 347ZM56 153Q56 168 72 173H708Q722 163 722 153Q722 140 707 133H70Q56 140 56 153Z"></path>
<path stroke-width="10" id="E1-MJMAIN-2208" d="M84 250Q84 372 166 450T360 539Q361 539 377 539T419 540T469 540H568Q583 532 583 520Q583 511 570 501L466 500Q355 499 329 494Q280 482 242 458T183 409T147 354T129 306T124 272V270H568Q583 262 583 250T568 230H124V228Q124 207 134 177T167 112T231 48T328 7Q355 1 466 0H570Q583 -10 583 -20Q583 -32 568 -40H471Q464 -40 446 -40T417 -41Q262 -41 172 45Q84 127 84 250Z"></path>
<path stroke-width="10" id="E1-MJMAIN-28" d="M94 250Q94 319 104 381T127 488T164 576T202 643T244 695T277 729T302 750H315H319Q333 750 333 741Q333 738 316 720T275 667T226 581T184 443T167 250T184 58T225 -81T274 -167T316 -220T333 -241Q333 -250 318 -250H315H302L274 -226Q180 -141 137 -14T94 250Z"></path>
<path stroke-width="10" id="E1-MJAMS-5A" d="M39 -1Q29 9 29 12Q29 23 60 77T219 337L410 648H364Q261 648 210 628Q168 612 142 588T109 545T97 509T88 490Q85 489 80 489Q72 489 61 503L70 588Q72 607 75 628T79 662T81 675Q84 677 88 681Q90 683 341 683H592Q604 673 604 666Q604 662 412 348L221 37Q221 35 301 35Q406 35 446 48Q504 68 543 111T597 212Q602 239 617 239Q624 239 629 234T635 223Q635 215 621 113T604 8L597 1Q595 -1 317 -1H39ZM148 637L166 648H112V632Q111 629 110 622T108 612Q108 608 110 608T116 612T129 623T148 637ZM552 646Q552 648 504 648Q452 648 450 643Q448 639 266 343T77 37Q77 35 128 35H179L366 339L552 646ZM572 35Q581 89 581 97L561 77Q542 59 526 48L508 37L539 35H572Z"></path>
<path stroke-width="10" id="E1-MJMAIN-29" d="M60 749L64 750Q69 750 74 750H86L114 726Q208 641 251 514T294 250Q294 182 284 119T261 12T224 -76T186 -143T145 -194T113 -227T90 -246Q87 -249 86 -250H74Q66 -250 63 -250T58 -247T55 -238Q56 -237 66 -225Q221 -64 221 250T66 725Q56 737 55 738Q55 746 60 749Z"></path>
<path stroke-width="10" id="E1-MJMAIN-2297" d="M56 250Q56 394 156 488T384 583Q530 583 626 485T722 250Q722 110 625 14T390 -83Q249 -83 153 14T56 250ZM582 471Q531 510 496 523Q446 542 381 542Q324 542 272 519T196 471L389 278L485 375L582 471ZM167 442Q95 362 95 250Q95 137 167 58L359 250L167 442ZM610 58Q682 138 682 250Q682 363 610 442L418 250L610 58ZM196 29Q209 16 230 2T295 -27T388 -42Q409 -42 429 -40T465 -33T496 -23T522 -11T544 1T561 13T574 22T582 29L388 222L196 29Z"></path>
<path stroke-width="10" id="E1-MJAMS-41" d="M130 -1H63Q34 -1 26 2T17 17Q17 24 22 29T35 35Q49 35 64 44T88 66Q101 93 210 383Q331 693 335 697T346 701T357 697Q358 696 493 399Q621 104 633 83Q656 35 686 35Q693 35 698 30T703 17Q703 5 693 2T643 -1H541Q388 -1 386 1Q378 6 378 16Q378 24 383 29T397 35Q412 35 434 45T456 65Q456 93 428 170L419 197H197L195 179Q184 134 184 97Q184 82 186 71T190 55T198 45T205 39T214 36L219 35Q241 31 241 17Q241 5 233 2T196 -1H130ZM493 68Q493 51 481 35H619Q604 56 515 256Q486 321 468 361L348 637Q347 637 330 592T313 543Q313 538 358 436T448 219T493 68ZM404 235Q404 239 355 355T295 488L275 430Q241 348 208 232H306Q404 232 404 235ZM155 48Q151 55 148 88V117L135 86Q118 47 117 46L110 37L135 35H159Q157 41 155 48Z"></path>
<path stroke-width="10" id="E1-MJAMS-51" d="M480 -10Q480 -13 486 -24T507 -50T541 -80T588 -104T648 -114Q666 -114 688 -110T714 -106Q724 -106 728 -114T729 -130Q723 -145 663 -163T548 -181Q503 -181 463 -169T395 -139T343 -97T307 -56T284 -19L280 -3L262 1Q188 24 131 81Q57 155 37 275Q34 292 34 342T37 410Q58 528 131 601Q179 652 248 676T388 701Q485 701 562 661Q698 595 731 448Q742 410 742 341T731 235Q707 141 646 81Q616 50 575 27T493 -5L480 -10ZM568 342Q568 613 437 659L395 666Q329 666 286 626Q232 570 213 439Q210 408 210 342T213 246Q231 113 286 57Q309 37 342 23Q357 19 389 19Q420 19 437 23Q469 38 491 57Q568 134 568 342ZM174 341V354Q174 393 175 419T183 484T205 561T246 635L249 639Q246 639 224 627T193 608Q189 606 183 601T169 589T155 577Q69 491 69 344Q69 133 231 52Q247 42 247 46Q247 46 246 48Q231 69 222 85T200 141T177 239Q174 269 174 341ZM708 341Q708 410 689 467T640 556T588 606T546 630Q532 638 531 638Q530 638 531 635Q563 590 577 543Q602 472 602 341V316Q602 264 599 230T580 144T531 48Q529 44 532 45T546 52Q575 68 596 84T642 128T683 200T706 299Q708 327 708 341ZM391 -17H333Q329 -15 326 -15Q324 -15 324 -17Q324 -21 362 -68Q424 -130 506 -143Q518 -144 544 -144Q569 -144 577 -143L589 -141L575 -139Q544 -127 509 -101T453 -37L442 -19L391 -17Z"></path>
</defs>
<g stroke="currentColor" fill="currentColor" stroke-width="0" transform="matrix(1 0 0 -1 0 0)">
 <use xlink:href="#E1-MJMATHI-6E" x="0" y="0"></use>
 <use xlink:href="#E1-MJMAIN-2216" x="605" y="0"></use>
 <use xlink:href="#E1-MJMATHI-72" x="1110" y="0"></use>
 <use xlink:href="#E1-MJMAIN-2F" x="1566" y="0"></use>
 <use xlink:href="#E1-MJMATHI-73" x="2071" y="0"></use>
 <use xlink:href="#E1-MJMAIN-3D" x="2822" y="0"></use>
 <use xlink:href="#E1-MJMATHI-72" x="3883" y="0"></use>
 <use xlink:href="#E1-MJMAIN-2F" x="4339" y="0"></use>
 <use xlink:href="#E1-MJMATHI-73" x="4844" y="0"></use>
 <use xlink:href="#E1-MJMAIN-2208" x="5596" y="0"></use>
 <use xlink:href="#E1-MJMAIN-28" x="6546" y="0"></use>
 <use xlink:href="#E1-MJMATHI-6E" x="6940" y="0"></use>
 <use xlink:href="#E1-MJMAIN-2216" x="7545" y="0"></use>
 <use xlink:href="#E1-MJAMS-5A" x="8050" y="0"></use>
 <use xlink:href="#E1-MJMAIN-29" x="8722" y="0"></use>
 <use xlink:href="#E1-MJMAIN-2297" x="9338" y="0"></use>
<g transform="translate(10343,0)">
 <use xlink:href="#E1-MJAMS-41" x="0" y="0"></use>
 <use transform="scale(0.707)" xlink:href="#E1-MJAMS-51" x="1028" y="-224"></use>
</g>
</g>
</svg>
