<svg xmlns="http://www.w3.org/2000/svg" viewBox="0 0 1 1"><g stroke="black" stroke-width="0.0001953125"><line x1="0" y1="0" x2="1" y2="0"></line><line x1="0" y1="0.0022777924281824247" x2="1" y2="0.0022777924281824247"></line><line x1="0" y1="0.004564499883864648" x2="1" y2="0.004564499883864648"></line><line x1="0" y1="0.00686015725947749" x2="1" y2="0.00686015725947749"></line><line x1="0" y1="0.009164799584017174" x2="1" y2="0.009164799584017174"></line><line x1="0" y1="0.01147846202357967" x2="1" y2="0.01147846202357967"></line><line x1="0" y1="0.013801179881896716" x2="1" y2="0.013801179881896716"></line><line x1="0" y1="0.016132988600875725" x2="1" y2="0.016132988600875725"></line><line x1="0" y1="0.01847392376113891" x2="1" y2="0.01847392376113891"></line><line x1="0" y1="0.020824021082567565" x2="1" y2="0.020824021082567565"></line><line x1="0" y1="0.023183316424846646" x2="1" y2="0.023183316424846646"></line><line x1="0" y1="0.02555184578801189" x2="1" y2="0.02555184578801189"></line><line x1="0" y1="0.027929645312999136" x2="1" y2="0.027929645312999136"></line><line x1="0" y1="0.030316751282195895" x2="1" y2="0.030316751282195895"></line><line x1="0" y1="0.03271320011999517" x2="1" y2="0.03271320011999517"></line><line x1="0" y1="0.035119028393350495" x2="1" y2="0.035119028393350495"></line><line x1="0" y1="0.037534272812334964" x2="1" y2="0.037534272812334964"></line><line x1="0" y1="0.03995897023070024" x2="1" y2="0.03995897023070024"></line><line x1="0" y1="0.04239315764644" x2="1" y2="0.04239315764644"></line><line x1="0" y1="0.044836872202353724" x2="1" y2="0.044836872202353724"></line><line x1="0" y1="0.04729015118661386" x2="1" y2="0.04729015118661386"></line><line x1="0" y1="0.04975303203333443" x2="1" y2="0.04975303203333443"></line><line x1="0" y1="0.052225552323142715" x2="1" y2="0.052225552323142715"></line><line x1="0" y1="0.05470774978375209" x2="1" y2="0.05470774978375209"></line><line x1="0" y1="0.057199662290538134" x2="1" y2="0.057199662290538134"></line><line x1="0" y1="0.05970132786711665" x2="1" y2="0.05970132786711665"></line><line x1="0" y1="0.06221278468592346" x2="1" y2="0.06221278468592346"></line><line x1="0" y1="0.06473407106879714" x2="1" y2="0.06473407106879714"></line><line x1="0" y1="0.06726522548756357" x2="1" y2="0.06726522548756357"></line><line x1="0" y1="0.06980628656462347" x2="1" y2="0.06980628656462347"></line><line x1="0" y1="0.07235729307354076" x2="1" y2="0.07235729307354076"></line><line x1="0" y1="0.07491828393963548" x2="1" y2="0.07491828393963548"></line><line x1="0" y1="0.07748929824057678" x2="1" y2="0.07748929824057678"></line><line x1="0" y1="0.08007037520697902" x2="1" y2="0.08007037520697902"></line><line x1="0" y1="0.08266155422300155" x2="1" y2="0.08266155422300155"></line><line x1="0" y1="0.08526287482694861" x2="1" y2="0.08526287482694861"></line><line x1="0" y1="0.0878743767118732" x2="1" y2="0.0878743767118732"></line><line x1="0" y1="0.09049609972618222" x2="1" y2="0.09049609972618222"></line><line x1="0" y1="0.09312808387424515" x2="1" y2="0.09312808387424515"></line><line x1="0" y1="0.09577036931700368" x2="1" y2="0.09577036931700368"></line><line x1="0" y1="0.09842299637258559" x2="1" y2="0.09842299637258559"></line><line x1="0" y1="0.10108600551691904" x2="1" y2="0.10108600551691904"></line><line x1="0" y1="0.10375943738435027" x2="1" y2="0.10375943738435027"></line><line x1="0" y1="0.1064433327682643" x2="1" y2="0.1064433327682643"></line><line x1="0" y1="0.10913773262170673" x2="1" y2="0.10913773262170673"></line><line x1="0" y1="0.11184267805800877" x2="1" y2="0.11184267805800877"></line><line x1="0" y1="0.11455821035141471" x2="1" y2="0.11455821035141471"></line><line x1="0" y1="0.11728437093771168" x2="1" y2="0.11728437093771168"></line><line x1="0" y1="0.12002120141486228" x2="1" y2="0.12002120141486228"></line><line x1="0" y1="0.12276874354363795" x2="1" y2="0.12276874354363795"></line><line x1="0" y1="0.12552703924825817" x2="1" y2="0.12552703924825817"></line><line x1="0" y1="0.12829613061702888" x2="1" y2="0.12829613061702888"></line><line x1="0" y1="0.1310760599029846" x2="1" y2="0.1310760599029846"></line><line x1="0" y1="0.13386686952453392" x2="1" y2="0.13386686952453392"></line><line x1="0" y1="0.13666860206610637" x2="1" y2="0.13666860206610637"></line><line x1="0" y1="0.13948130027880248" x2="1" y2="0.13948130027880248"></line><line x1="0" y1="0.1423050070810448" x2="1" y2="0.1423050070810448"></line><line x1="0" y1="0.1451397655592354" x2="1" y2="0.1451397655592354"></line><line x1="0" y1="0.1479856189684104" x2="1" y2="0.1479856189684104"></line><line x1="0" y1="0.15084261073290203" x2="1" y2="0.15084261073290203"></line><line x1="0" y1="0.15371078444700076" x2="1" y2="0.15371078444700076"></line><line x1="0" y1="0.15659018387561932" x2="1" y2="0.15659018387561932"></line><line x1="0" y1="0.15948085295496245" x2="1" y2="0.15948085295496245"></line><line x1="0" y1="0.16238283579319585" x2="1" y2="0.16238283579319585"></line><line x1="0" y1="0.16529617667112012" x2="1" y2="0.16529617667112012"></line><line x1="0" y1="0.16822092004284528" x2="1" y2="0.16822092004284528"></line><line x1="0" y1="0.1711571105364704" x2="1" y2="0.1711571105364704"></line><line x1="0" y1="0.17410479295476405" x2="1" y2="0.17410479295476405"></line><line x1="0" y1="0.17706401227584734" x2="1" y2="0.17706401227584734"></line><line x1="0" y1="0.18003481365388135" x2="1" y2="0.18003481365388135"></line><line x1="0" y1="0.18301724241975512" x2="1" y2="0.18301724241975512"></line><line x1="0" y1="0.1860113440817782" x2="1" y2="0.1860113440817782"></line><line x1="0" y1="0.189017164326374" x2="1" y2="0.189017164326374"></line><line x1="0" y1="0.1920347490187781" x2="1" y2="0.1920347490187781"></line><line x1="0" y1="0.19506414420373747" x2="1" y2="0.19506414420373747"></line><line x1="0" y1="0.19810539610621278" x2="1" y2="0.19810539610621278"></line><line x1="0" y1="0.20115855113208464" x2="1" y2="0.20115855113208464"></line><line x1="0" y1="0.20422365586886035" x2="1" y2="0.20422365586886035"></line><line x1="0" y1="0.2073007570863864" x2="1" y2="0.2073007570863864"></line><line x1="0" y1="0.21038990173756053" x2="1" y2="0.21038990173756053"></line><line x1="0" y1="0.2134911369590498" x2="1" y2="0.2134911369590498"></line><line x1="0" y1="0.21660451007200787" x2="1" y2="0.21660451007200787"></line><line x1="0" y1="0.2197300685827992" x2="1" y2="0.2197300685827992"></line><line x1="0" y1="0.22286786018372232" x2="1" y2="0.22286786018372232"></line><line x1="0" y1="0.22601793275373833" x2="1" y2="0.22601793275373833"></line><line x1="0" y1="0.22918033435920085" x2="1" y2="0.22918033435920085"></line><line x1="0" y1="0.2323551132545909" x2="1" y2="0.2323551132545909"></line><line x1="0" y1="0.2355423178832511" x2="1" y2="0.2355423178832511"></line><line x1="0" y1="0.23874199687812644" x2="1" y2="0.23874199687812644"></line><line x1="0" y1="0.24195419906250595" x2="1" y2="0.24195419906250595"></line><line x1="0" y1="0.24517897345076775" x2="1" y2="0.24517897345076775"></line><line x1="0" y1="0.24841636924912616" x2="1" y2="0.24841636924912616"></line><line x1="0" y1="0.2516664358563838" x2="1" y2="0.2516664358563838"></line><line x1="0" y1="0.2549292228646845" x2="1" y2="0.2549292228646845"></line><line x1="0" y1="0.2582047800602703" x2="1" y2="0.2582047800602703"></line><line x1="0" y1="0.2614931574242411" x2="1" y2="0.2614931574242411"></line><line x1="0" y1="0.2647944051333172" x2="1" y2="0.2647944051333172"></line><line x1="0" y1="0.268108573560605" x2="1" y2="0.268108573560605"></line><line x1="0" y1="0.27143571327636595" x2="1" y2="0.27143571327636595"></line><line x1="0" y1="0.2747758750487875" x2="1" y2="0.2747758750487875"></line><line x1="0" y1="0.27812910984475847" x2="1" y2="0.27812910984475847"></line><line x1="0" y1="0.2814954688306466" x2="1" y2="0.2814954688306466"></line><line x1="0" y1="0.2848750033730786" x2="1" y2="0.2848750033730786"></line><line x1="0" y1="0.2882677650397247" x2="1" y2="0.2882677650397247"></line><line x1="0" y1="0.2916738056000854" x2="1" y2="0.2916738056000854"></line><line x1="0" y1="0.29509317702628124" x2="1" y2="0.29509317702628124"></line><line x1="0" y1="0.29852593149384604" x2="1" y2="0.29852593149384604"></line><line x1="0" y1="0.3019721213825226" x2="1" y2="0.3019721213825226"></line><line x1="0" y1="0.30543179927706215" x2="1" y2="0.30543179927706215"></line><line x1="0" y1="0.30890501796802755" x2="1" y2="0.30890501796802755"></line><line x1="0" y1="0.31239183045259716" x2="1" y2="0.31239183045259716"></line><line x1="0" y1="0.315892289935375" x2="1" y2="0.315892289935375"></line><line x1="0" y1="0.3194064498292018" x2="1" y2="0.3194064498292018"></line><line x1="0" y1="0.32293436375597034" x2="1" y2="0.32293436375597034"></line><line x1="0" y1="0.32647608554744334" x2="1" y2="0.32647608554744334"></line><line x1="0" y1="0.33003166924607524" x2="1" y2="0.33003166924607524"></line><line x1="0" y1="0.33360116910583704" x2="1" y2="0.33360116910583704"></line><line x1="0" y1="0.3371846395930431" x2="1" y2="0.3371846395930431"></line><line x1="0" y1="0.34078213538718355" x2="1" y2="0.34078213538718355"></line><line x1="0" y1="0.34439371138175723" x2="1" y2="0.34439371138175723"></line><line x1="0" y1="0.34801942268511055" x2="1" y2="0.34801942268511055"></line><line x1="0" y1="0.3516593246212782" x2="1" y2="0.3516593246212782"></line><line x1="0" y1="0.35531347273082636" x2="1" y2="0.35531347273082636"></line><line x1="0" y1="0.35898192277170143" x2="1" y2="0.35898192277170143"></line><line x1="0" y1="0.3626647307200797" x2="1" y2="0.3626647307200797"></line><line x1="0" y1="0.3663619527712221" x2="1" y2="0.3663619527712221"></line><line x1="0" y1="0.3700736453403321" x2="1" y2="0.3700736453403321"></line><line x1="0" y1="0.37379986506341556" x2="1" y2="0.37379986506341556"></line><line x1="0" y1="0.3775406687981455" x2="1" y2="0.3775406687981455"></line><line x1="0" y1="0.3812961136247296" x2="1" y2="0.3812961136247296"></line><line x1="0" y1="0.3850662568467813" x2="1" y2="0.3850662568467813"></line><line x1="0" y1="0.3888511559921939" x2="1" y2="0.3888511559921939"></line><line x1="0" y1="0.3926508688140184" x2="1" y2="0.3926508688140184"></line><line x1="0" y1="0.3964654532913448" x2="1" y2="0.3964654532913448"></line><line x1="0" y1="0.40029496763018746" x2="1" y2="0.40029496763018746"></line><line x1="0" y1="0.40413947026437186" x2="1" y2="0.40413947026437186"></line><line x1="0" y1="0.4079990198564278" x2="1" y2="0.4079990198564278"></line><line x1="0" y1="0.4118736752984825" x2="1" y2="0.4118736752984825"></line><line x1="0" y1="0.4157634957131616" x2="1" y2="0.4157634957131616"></line><line x1="0" y1="0.4196685404544902" x2="1" y2="0.4196685404544902"></line><line x1="0" y1="0.42358886910879723" x2="1" y2="0.42358886910879723"></line><line x1="0" y1="0.42752454149562746" x2="1" y2="0.42752454149562746"></line><line x1="0" y1="0.43147561766865145" x2="1" y2="0.43147561766865145"></line><line x1="0" y1="0.43544215791658436" x2="1" y2="0.43544215791658436"></line><line x1="0" y1="0.4394242227641035" x2="1" y2="0.4394242227641035"></line><line x1="0" y1="0.44342187297277413" x2="1" y2="0.44342187297277413"></line><line x1="0" y1="0.4474351695419749" x2="1" y2="0.4474351695419749"></line><line x1="0" y1="0.4514641737098295" x2="1" y2="0.4514641737098295"></line><line x1="0" y1="0.4555089469541408" x2="1" y2="0.4555089469541408"></line><line x1="0" y1="0.459569550993329" x2="1" y2="0.459569550993329"></line><line x1="0" y1="0.46364604778737334" x2="1" y2="0.46364604778737334"></line><line x1="0" y1="0.4677384995387579" x2="1" y2="0.4677384995387579"></line><line x1="0" y1="0.4718469686934197" x2="1" y2="0.4718469686934197"></line><line x1="0" y1="0.47597151794170317" x2="1" y2="0.47597151794170317"></line><line x1="0" y1="0.48011221021931483" x2="1" y2="0.48011221021931483"></line><line x1="0" y1="0.48426910870828516" x2="1" y2="0.48426910870828516"></line><line x1="0" y1="0.48844227683793207" x2="1" y2="0.48844227683793207"></line><line x1="0" y1="0.4926317782858289" x2="1" y2="0.4926317782858289"></line><line x1="0" y1="0.49683767697877523" x2="1" y2="0.49683767697877523"></line><line x1="0" y1="0.5010600370937744" x2="1" y2="0.5010600370937744"></line><line x1="0" y1="0.5052989230590101" x2="1" y2="0.5052989230590101"></line><line x1="0" y1="0.509554399554832" x2="1" y2="0.509554399554832"></line><line x1="0" y1="0.5138265315147402" x2="1" y2="0.5138265315147402"></line><line x1="0" y1="0.5181153841263781" x2="1" y2="0.5181153841263781"></line><line x1="0" y1="0.5224210228325268" x2="1" y2="0.5224210228325268"></line><line x1="0" y1="0.5267435133321022" x2="1" y2="0.5267435133321022"></line><line x1="0" y1="0.5310829215811589" x2="1" y2="0.5310829215811589"></line><line x1="0" y1="0.5354393137938964" x2="1" y2="0.5354393137938964"></line><line x1="0" y1="0.539812756443669" x2="1" y2="0.539812756443669"></line><line x1="0" y1="0.5442033162640004" x2="1" y2="0.5442033162640004"></line><line x1="0" y1="0.5486110602496019" x2="1" y2="0.5486110602496019"></line><line x1="0" y1="0.5530360556573948" x2="1" y2="0.5530360556573948"></line><line x1="0" y1="0.5574783700075365" x2="1" y2="0.5574783700075365"></line><line x1="0" y1="0.5619380710844509" x2="1" y2="0.5619380710844509"></line><line x1="0" y1="0.5664152269378625" x2="1" y2="0.5664152269378625"></line><line x1="0" y1="0.5709099058838347" x2="1" y2="0.5709099058838347"></line><line x1="0" y1="0.5754221765058131" x2="1" y2="0.5754221765058131"></line><line x1="0" y1="0.5799521076556704" x2="1" y2="0.5799521076556704"></line><line x1="0" y1="0.5844997684547587" x2="1" y2="0.5844997684547587"></line><line x1="0" y1="0.5890652282949629" x2="1" y2="0.5890652282949629"></line><line x1="0" y1="0.5936485568397605" x2="1" y2="0.5936485568397605"></line><line x1="0" y1="0.5982498240252832" x2="1" y2="0.5982498240252832"></line><line x1="0" y1="0.6028691000613865" x2="1" y2="0.6028691000613865"></line><line x1="0" y1="0.6075064554327186" x2="1" y2="0.6075064554327186"></line><line x1="0" y1="0.6121619608997967" x2="1" y2="0.6121619608997967"></line><line x1="0" y1="0.6168356875000865" x2="1" y2="0.6168356875000865"></line><line x1="0" y1="0.6215277065490881" x2="1" y2="0.6215277065490881"></line><line x1="0" y1="0.6262380896414208" x2="1" y2="0.6262380896414208"></line><line x1="0" y1="0.6309669086519178" x2="1" y2="0.6309669086519178"></line><line x1="0" y1="0.6357142357367231" x2="1" y2="0.6357142357367231"></line><line x1="0" y1="0.6404801433343914" x2="1" y2="0.6404801433343914"></line><line x1="0" y1="0.6452647041669936" x2="1" y2="0.6452647041669936"></line><line x1="0" y1="0.6500679912412274" x2="1" y2="0.6500679912412274"></line><line x1="0" y1="0.6548900778495299" x2="1" y2="0.6548900778495299"></line><line x1="0" y1="0.6597310375711976" x2="1" y2="0.6597310375711976"></line><line x1="0" y1="0.664590944273507" x2="1" y2="0.664590944273507"></line><line x1="0" y1="0.6694698721128437" x2="1" y2="0.6694698721128437"></line><line x1="0" y1="0.6743678955358332" x2="1" y2="0.6743678955358332"></line><line x1="0" y1="0.6792850892804778" x2="1" y2="0.6792850892804778"></line><line x1="0" y1="0.6842215283772932" x2="1" y2="0.6842215283772932"></line><line x1="0" y1="0.6891772881504593" x2="1" y2="0.6891772881504593"></line><line x1="0" y1="0.6941524442189655" x2="1" y2="0.6941524442189655"></line><line x1="0" y1="0.6991470724977649" x2="1" y2="0.6991470724977649"></line><line x1="0" y1="0.7041612491989331" x2="1" y2="0.7041612491989331"></line><line x1="0" y1="0.7091950508328326" x2="1" y2="0.7091950508328326"></line><line x1="0" y1="0.7142485542092788" x2="1" y2="0.7142485542092788"></line><line x1="0" y1="0.719321836438711" x2="1" y2="0.719321836438711"></line><line x1="0" y1="0.7244149749333718" x2="1" y2="0.7244149749333718"></line><line x1="0" y1="0.729528047408485" x2="1" y2="0.729528047408485"></line><line x1="0" y1="0.7346611318834452" x2="1" y2="0.7346611318834452"></line><line x1="0" y1="0.7398143066830046" x2="1" y2="0.7398143066830046"></line><line x1="0" y1="0.7449876504384708" x2="1" y2="0.7449876504384708"></line><line x1="0" y1="0.750181242088905" x2="1" y2="0.750181242088905"></line><line x1="0" y1="0.7553951608823276" x2="1" y2="0.7553951608823276"></line><line x1="0" y1="0.7606294863769265" x2="1" y2="0.7606294863769265"></line><line x1="0" y1="0.7658842984422725" x2="1" y2="0.7658842984422725"></line><line x1="0" y1="0.771159677260536" x2="1" y2="0.771159677260536"></line><line x1="0" y1="0.7764557033277124" x2="1" y2="0.7764557033277124"></line><line x1="0" y1="0.781772457454848" x2="1" y2="0.781772457454848"></line><line x1="0" y1="0.7871100207692768" x2="1" y2="0.7871100207692768"></line><line x1="0" y1="0.7924684747158548" x2="1" y2="0.7924684747158548"></line><line x1="0" y1="0.7978479010582044" x2="1" y2="0.7978479010582044"></line><line x1="0" y1="0.8032483818799614" x2="1" y2="0.8032483818799614"></line><line x1="0" y1="0.8086699995860289" x2="1" y2="0.8086699995860289"></line><line x1="0" y1="0.8141128369038327" x2="1" y2="0.8141128369038327"></line><line x1="0" y1="0.819576976884585" x2="1" y2="0.819576976884585"></line><line x1="0" y1="0.8250625029045515" x2="1" y2="0.8250625029045515"></line><line x1="0" y1="0.830569498666322" x2="1" y2="0.830569498666322"></line><line x1="0" y1="0.8360980482000914" x2="1" y2="0.8360980482000914"></line><line x1="0" y1="0.8416482358649376" x2="1" y2="0.8416482358649376"></line><line x1="0" y1="0.847220146350111" x2="1" y2="0.847220146350111"></line><line x1="0" y1="0.8528138646763265" x2="1" y2="0.8528138646763265"></line><line x1="0" y1="0.8584294761970603" x2="1" y2="0.8584294761970603"></line><line x1="0" y1="0.8640670665998537" x2="1" y2="0.8640670665998537"></line><line x1="0" y1="0.8697267219076185" x2="1" y2="0.8697267219076185"></line><line x1="0" y1="0.8754085284799515" x2="1" y2="0.8754085284799515"></line><line x1="0" y1="0.8811125730144505" x2="1" y2="0.8811125730144505"></line><line x1="0" y1="0.8868389425480377" x2="1" y2="0.8868389425480377"></line><line x1="0" y1="0.8925877244582906" x2="1" y2="0.8925877244582906"></line><line x1="0" y1="0.8983590064647702" x2="1" y2="0.8983590064647702"></line><line x1="0" y1="0.9041528766303637" x2="1" y2="0.9041528766303637"></line><line x1="0" y1="0.9099694233626263" x2="1" y2="0.9099694233626263"></line><line x1="0" y1="0.91580873541513" x2="1" y2="0.91580873541513"></line><line x1="0" y1="0.9216709018888192" x2="1" y2="0.9216709018888192"></line><line x1="0" y1="0.9275560122333694" x2="1" y2="0.9275560122333694"></line><line x1="0" y1="0.9334641562485523" x2="1" y2="0.9334641562485523"></line><line x1="0" y1="0.9393954240856062" x2="1" y2="0.9393954240856062"></line><line x1="0" y1="0.9453499062486095" x2="1" y2="0.9453499062486095"></line><line x1="0" y1="0.9513276935958663" x2="1" y2="0.9513276935958663"></line><line x1="0" y1="0.9573288773412882" x2="1" y2="0.9573288773412882"></line><line x1="0" y1="0.9633535490557892" x2="1" y2="0.9633535490557892"></line><line x1="0" y1="0.9694018006686802" x2="1" y2="0.9694018006686802"></line><line x1="0" y1="0.975473724469075" x2="1" y2="0.975473724469075"></line><line x1="0" y1="0.9815694131072954" x2="1" y2="0.9815694131072954"></line><line x1="0" y1="0.9876889595962864" x2="1" y2="0.9876889595962864"></line><line x1="0" y1="0.9938324573130363" x2="1" y2="0.9938324573130363"></line></g></svg>
